<svg width="231" height="28" viewBox="0 0 231 28" fill="none" xmlns="http://www.w3.org/2000/svg">
<path d="M5.32 21L0.26 9.7H1.8L6.48 20.26H5.62L10.34 9.7H11.8L6.74 21H5.32ZM18.6411 21.12C17.4944 21.12 16.4611 20.8733 15.5411 20.38C14.6211 19.8733 13.8944 19.1867 13.3611 18.32C12.8411 17.44 12.5811 16.4467 12.5811 15.34C12.5811 14.2333 12.8411 13.2467 13.3611 12.38C13.8944 11.5133 14.6211 10.8267 15.5411 10.32C16.4611 9.81333 17.4944 9.56 18.6411 9.56C19.8011 9.56 20.8344 9.81333 21.7411 10.32C22.6611 10.8267 23.3811 11.5133 23.9011 12.38C24.4344 13.2467 24.7011 14.2333 24.7011 15.34C24.7011 16.4467 24.4344 17.44 23.9011 18.32C23.3811 19.1867 22.6611 19.8733 21.7411 20.38C20.8344 20.8733 19.8011 21.12 18.6411 21.12ZM18.6411 19.88C19.5344 19.88 20.3278 19.6867 21.0211 19.3C21.7144 18.9 22.2611 18.36 22.6611 17.68C23.0611 16.9867 23.2611 16.2067 23.2611 15.34C23.2611 14.4733 23.0544 13.7 22.6411 13.02C22.2411 12.34 21.6944 11.8067 21.0011 11.42C20.3211 11.02 19.5344 10.82 18.6411 10.82C17.7611 10.82 16.9678 11.02 16.2611 11.42C15.5678 11.8067 15.0211 12.34 14.6211 13.02C14.2211 13.7 14.0211 14.4733 14.0211 15.34C14.0211 16.2067 14.2211 16.9867 14.6211 17.68C15.0211 18.36 15.5678 18.9 16.2611 19.3C16.9678 19.6867 17.7611 19.88 18.6411 19.88ZM27.7641 21V9.7H29.2041V21H27.7641ZM33.4086 21V9.7H37.7886C38.7753 9.7 39.6153 9.85333 40.3086 10.16C41.0153 10.4667 41.5619 10.9133 41.9486 11.5C42.3353 12.0733 42.5286 12.7733 42.5286 13.6C42.5286 14.4 42.3353 15.0933 41.9486 15.68C41.5619 16.2667 41.0153 16.7133 40.3086 17.02C39.6153 17.3267 38.7753 17.48 37.7886 17.48H34.2086L34.8486 16.84V21H33.4086ZM41.1486 21L38.1886 16.9H39.7686L42.7086 21H41.1486ZM34.8486 16.98L34.2886 16.3H37.7286C38.8219 16.3 39.6553 16.0667 40.2286 15.6C40.8019 15.12 41.0886 14.4533 41.0886 13.6C41.0886 12.7333 40.8019 12.0667 40.2286 11.6C39.6553 11.1333 38.8219 10.9 37.7286 10.9H34.2886L34.8486 10.22V16.98ZM53.0834 21V10.9H49.1034V9.7H58.5034V10.9H54.5234V21H53.0834ZM65.3989 21.12C64.2522 21.12 63.2189 20.8733 62.2989 20.38C61.3789 19.8733 60.6522 19.1867 60.1189 18.32C59.5989 17.44 59.3389 16.4467 59.3389 15.34C59.3389 14.2333 59.5989 13.2467 60.1189 12.38C60.6522 11.5133 61.3789 10.8267 62.2989 10.32C63.2189 9.81333 64.2522 9.56 65.3989 9.56C66.5589 9.56 67.5922 9.81333 68.4989 10.32C69.4189 10.8267 70.1389 11.5133 70.6589 12.38C71.1922 13.2467 71.4589 14.2333 71.4589 15.34C71.4589 16.4467 71.1922 17.44 70.6589 18.32C70.1389 19.1867 69.4189 19.8733 68.4989 20.38C67.5922 20.8733 66.5589 21.12 65.3989 21.12ZM65.3989 19.88C66.2922 19.88 67.0856 19.6867 67.7789 19.3C68.4722 18.9 69.0189 18.36 69.4189 17.68C69.8189 16.9867 70.0189 16.2067 70.0189 15.34C70.0189 14.4733 69.8122 13.7 69.3989 13.02C68.9989 12.34 68.4522 11.8067 67.7589 11.42C67.0789 11.02 66.2922 10.82 65.3989 10.82C64.5189 10.82 63.7256 11.02 63.0189 11.42C62.3256 11.8067 61.7789 12.34 61.3789 13.02C60.9789 13.7 60.7789 14.4733 60.7789 15.34C60.7789 16.2067 60.9789 16.9867 61.3789 17.68C61.7789 18.36 62.3256 18.9 63.0189 19.3C63.7256 19.6867 64.5189 19.88 65.3989 19.88ZM79.2019 21.12C78.2019 21.12 77.3419 20.9333 76.6219 20.56C75.9152 20.1733 75.3685 19.6133 74.9819 18.88C74.5952 18.1467 74.4019 17.2533 74.4019 16.2V9.7H75.8419V16.16C75.8419 17.4 76.1352 18.3333 76.7219 18.96C77.3085 19.5733 78.1352 19.88 79.2019 19.88C80.2819 19.88 81.1152 19.5733 81.7019 18.96C82.2885 18.3333 82.5819 17.4 82.5819 16.16V9.7H83.9819V16.2C83.9819 17.2533 83.7885 18.1467 83.4019 18.88C83.0285 19.6133 82.4819 20.1733 81.7619 20.56C81.0552 20.9333 80.2019 21.12 79.2019 21.12ZM90.017 21V10.9H86.037V9.7H95.437V10.9H91.457V21H90.017ZM98.8078 14.68H104.888V15.86H98.8078V14.68ZM99.0478 19.8H105.828V21H97.6078V9.7H105.588V10.9H99.0478V19.8ZM116.436 17.92C116.436 18.5467 116.263 19.1 115.916 19.58C115.583 20.06 115.089 20.44 114.436 20.72C113.796 20.9867 113.003 21.12 112.056 21.12C111.189 21.12 110.356 20.9867 109.556 20.72C108.769 20.4533 108.149 20.1133 107.696 19.7L108.296 18.58C108.709 18.9667 109.256 19.2867 109.936 19.54C110.629 19.78 111.349 19.9 112.096 19.9C113.136 19.9 113.876 19.72 114.316 19.36C114.769 18.9867 114.996 18.5467 114.996 18.04C114.996 17.6133 114.869 17.28 114.616 17.04C114.363 16.7867 114.029 16.5867 113.616 16.44C113.203 16.28 112.749 16.1467 112.256 16.04C111.763 15.9333 111.269 15.8133 110.776 15.68C110.283 15.5467 109.823 15.3667 109.396 15.14C108.983 14.9133 108.649 14.6133 108.396 14.24C108.156 13.8667 108.036 13.3733 108.036 12.76C108.036 12.1467 108.203 11.6 108.536 11.12C108.869 10.64 109.356 10.26 109.996 9.98C110.636 9.7 111.423 9.56 112.356 9.56C113.023 9.56 113.676 9.64667 114.316 9.82C114.969 9.98 115.529 10.2267 115.996 10.56L115.476 11.72C114.996 11.3867 114.483 11.1533 113.936 11.02C113.389 10.8733 112.849 10.8 112.316 10.8C111.329 10.8 110.603 10.9867 110.136 11.36C109.683 11.72 109.456 12.1667 109.456 12.7C109.456 13.1267 109.583 13.4667 109.836 13.72C110.089 13.96 110.423 14.16 110.836 14.32C111.249 14.4667 111.703 14.5933 112.196 14.7C112.703 14.8067 113.203 14.9267 113.696 15.06C114.189 15.1933 114.643 15.3733 115.056 15.6C115.469 15.8133 115.803 16.1067 116.056 16.48C116.309 16.8533 116.436 17.3333 116.436 17.92ZM124.639 21V9.7H126.079V19.8H132.379V21H124.639ZM135.839 14.68H141.919V15.86H135.839V14.68ZM136.079 19.8H142.859V21H134.639V9.7H142.619V10.9H136.079V19.8ZM153.467 17.92C153.467 18.5467 153.294 19.1 152.947 19.58C152.614 20.06 152.121 20.44 151.467 20.72C150.827 20.9867 150.034 21.12 149.087 21.12C148.221 21.12 147.387 20.9867 146.587 20.72C145.801 20.4533 145.181 20.1133 144.727 19.7L145.327 18.58C145.741 18.9667 146.287 19.2867 146.967 19.54C147.661 19.78 148.381 19.9 149.127 19.9C150.167 19.9 150.907 19.72 151.347 19.36C151.801 18.9867 152.027 18.5467 152.027 18.04C152.027 17.6133 151.901 17.28 151.647 17.04C151.394 16.7867 151.061 16.5867 150.647 16.44C150.234 16.28 149.781 16.1467 149.287 16.04C148.794 15.9333 148.301 15.8133 147.807 15.68C147.314 15.5467 146.854 15.3667 146.427 15.14C146.014 14.9133 145.681 14.6133 145.427 14.24C145.187 13.8667 145.067 13.3733 145.067 12.76C145.067 12.1467 145.234 11.6 145.567 11.12C145.901 10.64 146.387 10.26 147.027 9.98C147.667 9.7 148.454 9.56 149.387 9.56C150.054 9.56 150.707 9.64667 151.347 9.82C152.001 9.98 152.561 10.2267 153.027 10.56L152.507 11.72C152.027 11.3867 151.514 11.1533 150.967 11.02C150.421 10.8733 149.881 10.8 149.347 10.8C148.361 10.8 147.634 10.9867 147.167 11.36C146.714 11.72 146.487 12.1667 146.487 12.7C146.487 13.1267 146.614 13.4667 146.867 13.72C147.121 13.96 147.454 14.16 147.867 14.32C148.281 14.4667 148.734 14.5933 149.227 14.7C149.734 14.8067 150.234 14.9267 150.727 15.06C151.221 15.1933 151.674 15.3733 152.087 15.6C152.501 15.8133 152.834 16.1067 153.087 16.48C153.341 16.8533 153.467 17.3333 153.467 17.92ZM169.17 17.92C169.17 18.5467 168.997 19.1 168.65 19.58C168.317 20.06 167.824 20.44 167.17 20.72C166.53 20.9867 165.737 21.12 164.79 21.12C163.924 21.12 163.09 20.9867 162.29 20.72C161.504 20.4533 160.884 20.1133 160.43 19.7L161.03 18.58C161.444 18.9667 161.99 19.2867 162.67 19.54C163.364 19.78 164.084 19.9 164.83 19.9C165.87 19.9 166.61 19.72 167.05 19.36C167.504 18.9867 167.73 18.5467 167.73 18.04C167.73 17.6133 167.604 17.28 167.35 17.04C167.097 16.7867 166.764 16.5867 166.35 16.44C165.937 16.28 165.484 16.1467 164.99 16.04C164.497 15.9333 164.004 15.8133 163.51 15.68C163.017 15.5467 162.557 15.3667 162.13 15.14C161.717 14.9133 161.384 14.6133 161.13 14.24C160.89 13.8667 160.77 13.3733 160.77 12.76C160.77 12.1467 160.937 11.6 161.27 11.12C161.604 10.64 162.09 10.26 162.73 9.98C163.37 9.7 164.157 9.56 165.09 9.56C165.757 9.56 166.41 9.64667 167.05 9.82C167.704 9.98 168.264 10.2267 168.73 10.56L168.21 11.72C167.73 11.3867 167.217 11.1533 166.67 11.02C166.124 10.8733 165.584 10.8 165.05 10.8C164.064 10.8 163.337 10.9867 162.87 11.36C162.417 11.72 162.19 12.1667 162.19 12.7C162.19 13.1267 162.317 13.4667 162.57 13.72C162.824 13.96 163.157 14.16 163.57 14.32C163.984 14.4667 164.437 14.5933 164.93 14.7C165.437 14.8067 165.937 14.9267 166.43 15.06C166.924 15.1933 167.377 15.3733 167.79 15.6C168.204 15.8133 168.537 16.1067 168.79 16.48C169.044 16.8533 169.17 17.3333 169.17 17.92ZM173.339 14.68H179.419V15.86H173.339V14.68ZM173.579 19.8H180.359V21H172.139V9.7H180.119V10.9H173.579V19.8ZM174.839 8.06L177.579 5.58H179.479L176.239 8.06H174.839ZM183.467 21V9.7H187.847C188.834 9.7 189.674 9.85333 190.367 10.16C191.074 10.4667 191.621 10.9133 192.007 11.5C192.394 12.0733 192.587 12.7733 192.587 13.6C192.587 14.4 192.394 15.0933 192.007 15.68C191.621 16.2667 191.074 16.7133 190.367 17.02C189.674 17.3267 188.834 17.48 187.847 17.48H184.267L184.907 16.84V21H183.467ZM191.207 21L188.247 16.9H189.827L192.767 21H191.207ZM184.907 16.98L184.347 16.3H187.787C188.881 16.3 189.714 16.0667 190.287 15.6C190.861 15.12 191.147 14.4533 191.147 13.6C191.147 12.7333 190.861 12.0667 190.287 11.6C189.714 11.1333 188.881 10.9 187.787 10.9H184.347L184.907 10.22V16.98ZM195.948 21V9.7H197.388V21H195.948ZM202.792 14.68H208.872V15.86H202.792V14.68ZM203.032 19.8H209.812V21H201.592V9.7H209.572V10.9H203.032V19.8ZM220.42 17.92C220.42 18.5467 220.247 19.1 219.9 19.58C219.567 20.06 219.074 20.44 218.42 20.72C217.78 20.9867 216.987 21.12 216.04 21.12C215.174 21.12 214.34 20.9867 213.54 20.72C212.754 20.4533 212.134 20.1133 211.68 19.7L212.28 18.58C212.694 18.9667 213.24 19.2867 213.92 19.54C214.614 19.78 215.334 19.9 216.08 19.9C217.12 19.9 217.86 19.72 218.3 19.36C218.754 18.9867 218.98 18.5467 218.98 18.04C218.98 17.6133 218.854 17.28 218.6 17.04C218.347 16.7867 218.014 16.5867 217.6 16.44C217.187 16.28 216.734 16.1467 216.24 16.04C215.747 15.9333 215.254 15.8133 214.76 15.68C214.267 15.5467 213.807 15.3667 213.38 15.14C212.967 14.9133 212.634 14.6133 212.38 14.24C212.14 13.8667 212.02 13.3733 212.02 12.76C212.02 12.1467 212.187 11.6 212.52 11.12C212.854 10.64 213.34 10.26 213.98 9.98C214.62 9.7 215.407 9.56 216.34 9.56C217.007 9.56 217.66 9.64667 218.3 9.82C218.954 9.98 219.514 10.2267 219.98 10.56L219.46 11.72C218.98 11.3867 218.467 11.1533 217.92 11.02C217.374 10.8733 216.834 10.8 216.3 10.8C215.314 10.8 214.587 10.9867 214.12 11.36C213.667 11.72 213.44 12.1667 213.44 12.7C213.44 13.1267 213.567 13.4667 213.82 13.72C214.074 13.96 214.407 14.16 214.82 14.32C215.234 14.4667 215.687 14.5933 216.18 14.7C216.687 14.8067 217.187 14.9267 217.68 15.06C218.174 15.1933 218.627 15.3733 219.04 15.6C219.454 15.8133 219.787 16.1067 220.04 16.48C220.294 16.8533 220.42 17.3333 220.42 17.92Z" fill="#F5F0E1"/>
</svg>
