<svg width="148" height="28" viewBox="0 0 148 28" fill="none" xmlns="http://www.w3.org/2000/svg">
<path d="M5.32 21L0.26 9.7H1.8L6.48 20.26H5.62L10.34 9.7H11.8L6.74 21H5.32ZM18.6606 21.12C17.514 21.12 16.4806 20.8733 15.5606 20.38C14.6406 19.8733 13.914 19.1867 13.3806 18.32C12.8606 17.44 12.6006 16.4467 12.6006 15.34C12.6006 14.2333 12.8606 13.2467 13.3806 12.38C13.914 11.5133 14.6406 10.8267 15.5606 10.32C16.4806 9.81333 17.514 9.56 18.6606 9.56C19.8206 9.56 20.854 9.81333 21.7606 10.32C22.6806 10.8267 23.4006 11.5133 23.9206 12.38C24.454 13.2467 24.7206 14.2333 24.7206 15.34C24.7206 16.4467 24.454 17.44 23.9206 18.32C23.4006 19.1867 22.6806 19.8733 21.7606 20.38C20.854 20.8733 19.8206 21.12 18.6606 21.12ZM18.6606 19.88C19.554 19.88 20.3473 19.6867 21.0406 19.3C21.734 18.9 22.2806 18.36 22.6806 17.68C23.0806 16.9867 23.2806 16.2067 23.2806 15.34C23.2806 14.4733 23.074 13.7 22.6606 13.02C22.2606 12.34 21.714 11.8067 21.0206 11.42C20.3406 11.02 19.554 10.82 18.6606 10.82C17.7806 10.82 16.9873 11.02 16.2806 11.42C15.5873 11.8067 15.0406 12.34 14.6406 13.02C14.2406 13.7 14.0406 14.4733 14.0406 15.34C14.0406 16.2067 14.2406 16.9867 14.6406 17.68C15.0406 18.36 15.5873 18.9 16.2806 19.3C16.9873 19.6867 17.7806 19.88 18.6606 19.88ZM27.7836 21V9.7H29.2236V21H27.7836ZM33.4281 21V9.7H37.8081C38.7948 9.7 39.6348 9.85333 40.3281 10.16C41.0348 10.4667 41.5815 10.9133 41.9681 11.5C42.3548 12.0733 42.5481 12.7733 42.5481 13.6C42.5481 14.4 42.3548 15.0933 41.9681 15.68C41.5815 16.2667 41.0348 16.7133 40.3281 17.02C39.6348 17.3267 38.7948 17.48 37.8081 17.48H34.2281L34.8681 16.84V21H33.4281ZM41.1681 21L38.2081 16.9H39.7881L42.7281 21H41.1681ZM34.8681 16.98L34.3081 16.3H37.7481C38.8415 16.3 39.6748 16.0667 40.2481 15.6C40.8215 15.12 41.1081 14.4533 41.1081 13.6C41.1081 12.7333 40.8215 12.0667 40.2481 11.6C39.6748 11.1333 38.8415 10.9 37.7481 10.9H34.3081L34.8681 10.22V16.98ZM51.143 21V9.7H52.583V19.8H58.883V21H51.143ZM62.343 14.68H68.423V15.86H62.343V14.68ZM62.583 19.8H69.363V21H61.143V9.7H69.123V10.9H62.583V19.8ZM77.7055 21V9.7H82.4455C83.7255 9.7 84.8255 9.94 85.7455 10.42C86.6655 10.8867 87.3721 11.5467 87.8655 12.4C88.3721 13.24 88.6255 14.22 88.6255 15.34C88.6255 16.4733 88.3721 17.4667 87.8655 18.32C87.3721 19.16 86.6655 19.82 85.7455 20.3C84.8255 20.7667 83.7255 21 82.4455 21H77.7055ZM79.1455 19.8H82.3855C83.3988 19.8 84.2655 19.6133 84.9855 19.24C85.7055 18.8667 86.2521 18.3467 86.6255 17.68C86.9988 17.0133 87.1855 16.2333 87.1855 15.34C87.1855 14.4467 86.9988 13.6667 86.6255 13C86.2521 12.3333 85.7055 11.82 84.9855 11.46C84.2655 11.0867 83.3988 10.9 82.3855 10.9H79.1455V19.8ZM92.8898 14.68H98.9698V15.86H92.8898V14.68ZM93.1298 19.8H99.9098V21H91.6898V9.7H99.6698V10.9H93.1298V19.8ZM94.3898 8.06L97.1298 5.58H99.0298L95.7898 8.06H94.3898ZM104.978 21V10.9H100.998V9.7H110.398V10.9H106.418V21H104.978ZM109.806 21L115.026 9.7H116.446L121.666 21H120.226L115.486 10.48H115.986L111.226 21H109.806ZM112.006 18.08L112.426 16.92H118.866L119.286 18.08H112.006ZM123.819 21V9.7H125.259V21H123.819ZM129.463 21V9.7H130.903V19.8H137.203V21H129.463Z" fill="#E0A96D"/>
</svg>
