<svg width="218" height="60" viewBox="0 0 218 60" fill="none" xmlns="http://www.w3.org/2000/svg">
<path d="M0.172813 21.5598L6.57281 7.55981H8.03281L14.4328 21.5598H12.8728L6.99281 8.41981H7.59281L1.71281 21.5598H0.172813ZM2.69281 17.8198L3.13281 16.6198H11.2728L11.7128 17.8198H2.69281ZM7.21281 6.41981L3.97281 3.93981H5.87281L8.61281 6.41981H7.21281ZM21.8031 21.5598V10.2598H26.1831C27.1698 10.2598 28.0098 10.4131 28.7031 10.7198C29.4098 11.0265 29.9565 11.4731 30.3431 12.0598C30.7298 12.6331 30.9231 13.3331 30.9231 14.1598C30.9231 14.9731 30.7298 15.6731 30.3431 16.2598C29.9565 16.8465 29.4098 17.2931 28.7031 17.5998C28.0098 17.9065 27.1698 18.0598 26.1831 18.0598H22.6031L23.2431 17.3998V21.5598H21.8031ZM23.2431 17.5398L22.6831 16.8598H26.1231C27.2165 16.8598 28.0498 16.6265 28.6231 16.1598C29.1965 15.6798 29.4831 15.0131 29.4831 14.1598C29.4831 13.2931 29.1965 12.6265 28.6231 12.1598C28.0498 11.6931 27.2165 11.4598 26.1231 11.4598H22.6831L23.2431 10.7798V17.5398ZM34.1469 21.5598V10.2598H38.5269C39.5135 10.2598 40.3535 10.4131 41.0469 10.7198C41.7535 11.0265 42.3002 11.4731 42.6869 12.0598C43.0735 12.6331 43.2669 13.3331 43.2669 14.1598C43.2669 14.9598 43.0735 15.6531 42.6869 16.2398C42.3002 16.8265 41.7535 17.2731 41.0469 17.5798C40.3535 17.8865 39.5135 18.0398 38.5269 18.0398H34.9469L35.5869 17.3998V21.5598H34.1469ZM41.8869 21.5598L38.9269 17.4598H40.5069L43.4469 21.5598H41.8869ZM35.5869 17.5398L35.0269 16.8598H38.4669C39.5602 16.8598 40.3935 16.6265 40.9669 16.1598C41.5402 15.6798 41.8269 15.0131 41.8269 14.1598C41.8269 13.2931 41.5402 12.6265 40.9669 12.1598C40.3935 11.6931 39.5602 11.4598 38.4669 11.4598H35.0269L35.5869 10.7798V17.5398ZM51.5473 21.6798C50.4007 21.6798 49.3673 21.4331 48.4473 20.9398C47.5273 20.4331 46.8007 19.7465 46.2673 18.8798C45.7473 17.9998 45.4873 17.0065 45.4873 15.8998C45.4873 14.7931 45.7473 13.8065 46.2673 12.9398C46.8007 12.0731 47.5273 11.3865 48.4473 10.8798C49.3673 10.3731 50.4007 10.1198 51.5473 10.1198C52.7073 10.1198 53.7407 10.3731 54.6473 10.8798C55.5673 11.3865 56.2873 12.0731 56.8073 12.9398C57.3407 13.8065 57.6073 14.7931 57.6073 15.8998C57.6073 17.0065 57.3407 17.9998 56.8073 18.8798C56.2873 19.7465 55.5673 20.4331 54.6473 20.9398C53.7407 21.4331 52.7073 21.6798 51.5473 21.6798ZM51.5473 20.4398C52.4407 20.4398 53.234 20.2465 53.9273 19.8598C54.6207 19.4598 55.1673 18.9198 55.5673 18.2398C55.9673 17.5465 56.1673 16.7665 56.1673 15.8998C56.1673 15.0331 55.9607 14.2598 55.5473 13.5798C55.1473 12.8998 54.6007 12.3665 53.9073 11.9798C53.2273 11.5798 52.4407 11.3798 51.5473 11.3798C50.6673 11.3798 49.874 11.5798 49.1673 11.9798C48.474 12.3665 47.9273 12.8998 47.5273 13.5798C47.1273 14.2598 46.9273 15.0331 46.9273 15.8998C46.9273 16.7665 47.1273 17.5465 47.5273 18.2398C47.9273 18.9198 48.474 19.4598 49.1673 19.8598C49.874 20.2465 50.6673 20.4398 51.5473 20.4398ZM60.6703 21.5598V10.2598H65.0503C66.037 10.2598 66.877 10.4131 67.5703 10.7198C68.277 11.0265 68.8236 11.4731 69.2103 12.0598C69.597 12.6331 69.7903 13.3331 69.7903 14.1598C69.7903 14.9731 69.597 15.6731 69.2103 16.2598C68.8236 16.8465 68.277 17.2931 67.5703 17.5998C66.877 17.9065 66.037 18.0598 65.0503 18.0598H61.4703L62.1103 17.3998V21.5598H60.6703ZM62.1103 17.5398L61.5503 16.8598H64.9903C66.0836 16.8598 66.917 16.6265 67.4903 16.1598C68.0636 15.6798 68.3503 15.0131 68.3503 14.1598C68.3503 13.2931 68.0636 12.6265 67.4903 12.1598C66.917 11.6931 66.0836 11.4598 64.9903 11.4598H61.5503L62.1103 10.7798V17.5398ZM77.9341 21.6798C76.7874 21.6798 75.7541 21.4331 74.8341 20.9398C73.9141 20.4331 73.1874 19.7465 72.6541 18.8798C72.1341 17.9998 71.8741 17.0065 71.8741 15.8998C71.8741 14.7931 72.1341 13.8065 72.6541 12.9398C73.1874 12.0731 73.9141 11.3865 74.8341 10.8798C75.7541 10.3731 76.7874 10.1198 77.9341 10.1198C79.0941 10.1198 80.1274 10.3731 81.0341 10.8798C81.9541 11.3865 82.6741 12.0731 83.1941 12.9398C83.7274 13.8065 83.9941 14.7931 83.9941 15.8998C83.9941 17.0065 83.7274 17.9998 83.1941 18.8798C82.6741 19.7465 81.9541 20.4331 81.0341 20.9398C80.1274 21.4331 79.0941 21.6798 77.9341 21.6798ZM77.9341 20.4398C78.8274 20.4398 79.6207 20.2465 80.3141 19.8598C81.0074 19.4598 81.5541 18.9198 81.9541 18.2398C82.3541 17.5465 82.5541 16.7665 82.5541 15.8998C82.5541 15.0331 82.3474 14.2598 81.9341 13.5798C81.5341 12.8998 80.9874 12.3665 80.2941 11.9798C79.6141 11.5798 78.8274 11.3798 77.9341 11.3798C77.0541 11.3798 76.2607 11.5798 75.5541 11.9798C74.8607 12.3665 74.3141 12.8998 73.9141 13.5798C73.5141 14.2598 73.3141 15.0331 73.3141 15.8998C73.3141 16.7665 73.5141 17.5465 73.9141 18.2398C74.3141 18.9198 74.8607 19.4598 75.5541 19.8598C76.2607 20.2465 77.0541 20.4398 77.9341 20.4398ZM94.557 18.4798C94.557 19.1065 94.3837 19.6598 94.037 20.1398C93.7037 20.6198 93.2104 20.9998 92.557 21.2798C91.917 21.5465 91.1237 21.6798 90.177 21.6798C89.3104 21.6798 88.477 21.5465 87.677 21.2798C86.8904 21.0131 86.2704 20.6731 85.817 20.2598L86.417 19.1398C86.8304 19.5265 87.377 19.8465 88.057 20.0998C88.7504 20.3398 89.4704 20.4598 90.217 20.4598C91.257 20.4598 91.997 20.2798 92.437 19.9198C92.8904 19.5465 93.117 19.1065 93.117 18.5998C93.117 18.1731 92.9904 17.8398 92.737 17.5998C92.4837 17.3465 92.1504 17.1465 91.737 16.9998C91.3237 16.8398 90.8704 16.7065 90.377 16.5998C89.8837 16.4931 89.3904 16.3731 88.897 16.2398C88.4037 16.1065 87.9437 15.9265 87.517 15.6998C87.1037 15.4731 86.7704 15.1731 86.517 14.7998C86.277 14.4265 86.157 13.9331 86.157 13.3198C86.157 12.7065 86.3237 12.1598 86.657 11.6798C86.9904 11.1998 87.477 10.8198 88.117 10.5398C88.757 10.2598 89.5437 10.1198 90.477 10.1198C91.1437 10.1198 91.797 10.2065 92.437 10.3798C93.0904 10.5398 93.6504 10.7865 94.117 11.1198L93.597 12.2798C93.117 11.9465 92.6037 11.7131 92.057 11.5798C91.5104 11.4331 90.9704 11.3598 90.437 11.3598C89.4504 11.3598 88.7237 11.5465 88.257 11.9198C87.8037 12.2798 87.577 12.7265 87.577 13.2598C87.577 13.6865 87.7037 14.0265 87.957 14.2798C88.2104 14.5198 88.5437 14.7198 88.957 14.8798C89.3704 15.0265 89.8237 15.1531 90.317 15.2598C90.8237 15.3665 91.3237 15.4865 91.817 15.6198C92.3104 15.7531 92.7637 15.9331 93.177 16.1598C93.5904 16.3731 93.9237 16.6665 94.177 17.0398C94.4304 17.4131 94.557 17.8931 94.557 18.4798ZM102.76 21.5598V10.2598H107.5C108.78 10.2598 109.88 10.4998 110.8 10.9798C111.72 11.4465 112.427 12.1065 112.92 12.9598C113.427 13.7998 113.68 14.7798 113.68 15.8998C113.68 17.0331 113.427 18.0265 112.92 18.8798C112.427 19.7198 111.72 20.3798 110.8 20.8598C109.88 21.3265 108.78 21.5598 107.5 21.5598H102.76ZM104.2 20.3598H107.44C108.453 20.3598 109.32 20.1731 110.04 19.7998C110.76 19.4265 111.307 18.9065 111.68 18.2398C112.053 17.5731 112.24 16.7931 112.24 15.8998C112.24 15.0065 112.053 14.2265 111.68 13.5598C111.307 12.8931 110.76 12.3798 110.04 12.0198C109.32 11.6465 108.453 11.4598 107.44 11.4598H104.2V20.3598ZM121.425 21.6798C120.425 21.6798 119.565 21.4931 118.845 21.1198C118.138 20.7331 117.591 20.1731 117.205 19.4398C116.818 18.7065 116.625 17.8131 116.625 16.7598V10.2598H118.065V16.7198C118.065 17.9598 118.358 18.8931 118.945 19.5198C119.531 20.1331 120.358 20.4398 121.425 20.4398C122.505 20.4398 123.338 20.1331 123.925 19.5198C124.511 18.8931 124.805 17.9598 124.805 16.7198V10.2598H126.205V16.7598C126.205 17.8131 126.011 18.7065 125.625 19.4398C125.251 20.1731 124.705 20.7331 123.985 21.1198C123.278 21.4931 122.425 21.6798 121.425 21.6798ZM140.414 21.6798C139.267 21.6798 138.234 21.4331 137.314 20.9398C136.407 20.4331 135.687 19.7465 135.154 18.8798C134.634 17.9998 134.374 17.0065 134.374 15.8998C134.374 14.7931 134.634 13.8065 135.154 12.9398C135.687 12.0731 136.407 11.3865 137.314 10.8798C138.234 10.3731 139.267 10.1198 140.414 10.1198C141.321 10.1198 142.134 10.2598 142.854 10.5398C143.574 10.8198 144.194 11.2398 144.714 11.7998L143.794 12.7398C143.341 12.2731 142.834 11.9331 142.274 11.7198C141.714 11.4931 141.107 11.3798 140.454 11.3798C139.574 11.3798 138.781 11.5798 138.074 11.9798C137.367 12.3665 136.814 12.8998 136.414 13.5798C136.014 14.2598 135.814 15.0331 135.814 15.8998C135.814 16.7665 136.014 17.5465 136.414 18.2398C136.814 18.9198 137.367 19.4531 138.074 19.8398C138.781 20.2265 139.574 20.4198 140.454 20.4198C141.107 20.4198 141.714 20.3131 142.274 20.0998C142.834 19.8865 143.341 19.5398 143.794 19.0598L144.714 19.9998C144.194 20.5598 143.567 20.9798 142.834 21.2598C142.114 21.5398 141.307 21.6798 140.414 21.6798ZM147.545 21.5598V10.2598H148.985V21.5598H147.545ZM153.19 21.5598V10.2598H154.37L162.05 19.7798H161.49V10.2598H162.93V21.5598H161.73L154.05 12.0198H154.63V21.5598H153.19ZM168.335 15.2398H174.415V16.4198H168.335V15.2398ZM168.575 20.3598H175.355V21.5598H167.135V10.2598H175.115V11.4598H168.575V20.3598ZM169.835 8.61981L172.575 6.13981H174.475L171.235 8.61981H169.835ZM178.463 21.5598V10.2598H179.703L184.803 18.8398H184.223L189.283 10.2598H190.523V21.5598H189.143V12.4598H189.383L184.823 20.1398H184.163L179.523 12.4598H179.843V21.5598H178.463ZM192.673 21.5598L197.893 10.2598H199.313L204.533 21.5598H203.093L198.353 11.0398H198.853L194.093 21.5598H192.673ZM194.873 18.6398L195.293 17.4798H201.733L202.153 18.6398H194.873ZM207.117 21.6598C206.837 21.6598 206.59 21.5598 206.377 21.3598C206.177 21.1465 206.077 20.8998 206.077 20.6198C206.077 20.3265 206.177 20.0865 206.377 19.8998C206.59 19.6998 206.837 19.5998 207.117 19.5998C207.423 19.5998 207.67 19.6998 207.857 19.8998C208.057 20.0865 208.157 20.3265 208.157 20.6198C208.157 20.8998 208.057 21.1465 207.857 21.3598C207.67 21.5598 207.423 21.6598 207.117 21.6598ZM211.413 21.6598C211.133 21.6598 210.887 21.5598 210.673 21.3598C210.473 21.1465 210.373 20.8998 210.373 20.6198C210.373 20.3265 210.473 20.0865 210.673 19.8998C210.887 19.6998 211.133 19.5998 211.413 19.5998C211.72 19.5998 211.967 19.6998 212.153 19.8998C212.353 20.0865 212.453 20.3265 212.453 20.6198C212.453 20.8998 212.353 21.1465 212.153 21.3598C211.967 21.5598 211.72 21.6598 211.413 21.6598ZM215.71 21.6598C215.43 21.6598 215.184 21.5598 214.97 21.3598C214.77 21.1465 214.67 20.8998 214.67 20.6198C214.67 20.3265 214.77 20.0865 214.97 19.8998C215.184 19.6998 215.43 19.5998 215.71 19.5998C216.017 19.5998 216.264 19.6998 216.45 19.8998C216.65 20.0865 216.75 20.3265 216.75 20.6198C216.75 20.8998 216.65 21.1465 216.45 21.3598C216.264 21.5598 216.017 21.6598 215.71 21.6598Z" fill="#E0A96D"/>
</svg>
